<?xml version="1.0" encoding="UTF-8"?>
<svg xmlns="http://www.w3.org/2000/svg" xmlns:xlink="http://www.w3.org/1999/xlink" width="15px" height="15px" viewBox="0 0 15 15" version="1.1">
<g id="surface1">
<path style=" stroke:none;fill-rule:nonzero;fill:rgb(0%,0%,0%);fill-opacity:1;" d="M 1.875 0 C 0.839844 0 0 0.628906 0 1.40625 L 0 13.59375 C 0 14.371094 0.839844 15 1.875 15 L 5.625 15 L 5.625 12.65625 C 5.625 11.878906 6.464844 11.25 7.5 11.25 C 8.535156 11.25 9.375 11.878906 9.375 12.65625 L 9.375 15 L 13.125 15 C 14.160156 15 15 14.371094 15 13.59375 L 15 1.40625 C 15 0.628906 14.160156 0 13.125 0 Z M 2.5 7.03125 C 2.5 6.773438 2.78125 6.5625 3.125 6.5625 L 4.375 6.5625 C 4.71875 6.5625 5 6.773438 5 7.03125 L 5 7.96875 C 5 8.226562 4.71875 8.4375 4.375 8.4375 L 3.125 8.4375 C 2.78125 8.4375 2.5 8.226562 2.5 7.96875 Z M 6.875 6.5625 L 8.125 6.5625 C 8.46875 6.5625 8.75 6.773438 8.75 7.03125 L 8.75 7.96875 C 8.75 8.226562 8.46875 8.4375 8.125 8.4375 L 6.875 8.4375 C 6.53125 8.4375 6.25 8.226562 6.25 7.96875 L 6.25 7.03125 C 6.25 6.773438 6.53125 6.5625 6.875 6.5625 Z M 10 7.03125 C 10 6.773438 10.28125 6.5625 10.625 6.5625 L 11.875 6.5625 C 12.21875 6.5625 12.5 6.773438 12.5 7.03125 L 12.5 7.96875 C 12.5 8.226562 12.21875 8.4375 11.875 8.4375 L 10.625 8.4375 C 10.28125 8.4375 10 8.226562 10 7.96875 Z M 3.125 2.8125 L 4.375 2.8125 C 4.71875 2.8125 5 3.023438 5 3.28125 L 5 4.21875 C 5 4.476562 4.71875 4.6875 4.375 4.6875 L 3.125 4.6875 C 2.78125 4.6875 2.5 4.476562 2.5 4.21875 L 2.5 3.28125 C 2.5 3.023438 2.78125 2.8125 3.125 2.8125 Z M 6.25 3.28125 C 6.25 3.023438 6.53125 2.8125 6.875 2.8125 L 8.125 2.8125 C 8.46875 2.8125 8.75 3.023438 8.75 3.28125 L 8.75 4.21875 C 8.75 4.476562 8.46875 4.6875 8.125 4.6875 L 6.875 4.6875 C 6.53125 4.6875 6.25 4.476562 6.25 4.21875 Z M 10.625 2.8125 L 11.875 2.8125 C 12.21875 2.8125 12.5 3.023438 12.5 3.28125 L 12.5 4.21875 C 12.5 4.476562 12.21875 4.6875 11.875 4.6875 L 10.625 4.6875 C 10.28125 4.6875 10 4.476562 10 4.21875 L 10 3.28125 C 10 3.023438 10.28125 2.8125 10.625 2.8125 Z M 10.625 2.8125 "/>
</g>
</svg>
